<?xml version="1.0" standalone="no"?>
<!DOCTYPE svg PUBLIC "-//W3C//DTD SVG 20010904//EN"
 "http://www.w3.org/TR/2001/REC-SVG-20010904/DTD/svg10.dtd">
<svg version="1.0" xmlns="http://www.w3.org/2000/svg"
 width="545.000000pt" height="545.000000pt" viewBox="0 0 545.000000 545.000000"
 preserveAspectRatio="xMidYMid meet">
<metadata>
Created by potrace 1.11, written by Peter Selinger 2001-2013
</metadata>
<g transform="translate(0.000000,545.000000) scale(0.100000,-0.100000)"
fill="#000000" stroke="none">
<path d="M198 5438 c8 -8 8 -17 1 -31 -8 -13 -8 -22 0 -30 7 -7 13 -2 21 17 8
21 7 31 -4 42 -8 8 -18 14 -22 14 -5 0 -3 -5 4 -12z"/>
<path d="M277 5436 c-10 -26 -8 -66 3 -66 6 0 10 -9 10 -19 0 -11 8 -21 18
-23 14 -3 13 -5 -5 -10 -19 -5 -23 -2 -23 15 0 18 -2 19 -10 7 -7 -11 -10 2
-11 45 -1 35 -4 47 -6 28 -2 -18 -8 -33 -14 -33 -5 0 -9 -6 -9 -13 0 -16 -32
-18 -42 -3 -5 6 -8 3 -8 -10 0 -28 52 -28 62 1 6 19 6 19 7 -2 1 -12 -7 -27
-16 -33 -16 -10 -16 -10 2 -8 11 2 19 -2 18 -9 -2 -8 8 -11 27 -8 16 2 32 0
35 -5 3 -4 14 -6 25 -3 11 3 20 0 20 -6 0 -6 -4 -11 -10 -11 -5 0 -10 -5 -10
-12 0 -6 10 -3 21 8 16 14 23 15 26 7 3 -7 21 -13 41 -14 21 -1 48 -5 62 -9
21 -7 18 -8 -20 -9 -57 -2 -80 -14 -54 -30 17 -9 16 -10 -9 -11 -24 0 -27 3
-22 20 7 21 15 20 -135 22 -94 2 -90 -11 5 -17 68 -5 95 -16 95 -41 0 -13 -46
-20 -122 -17 -16 1 -26 -3 -23 -7 3 -5 -3 -13 -12 -19 -15 -9 -13 -10 14 -11
17 0 44 -5 59 -10 17 -7 30 -7 38 0 9 6 23 6 45 -3 26 -10 31 -16 26 -34 -4
-16 -1 -23 10 -23 8 0 15 6 15 14 0 21 19 30 35 16 11 -9 17 -6 30 17 l16 28
-5 -30 c-3 -16 -3 -24 0 -17 9 19 20 14 32 -13 8 -17 20 -25 37 -25 15 0 24
-4 21 -9 -10 -15 4 -39 27 -46 22 -8 22 -8 1 -12 -16 -3 -20 -10 -17 -27 4
-22 9 -23 45 -18 30 4 40 2 36 -8 -2 -7 -24 -14 -48 -16 -53 -5 -58 -9 -41
-36 9 -14 10 -23 2 -31 -6 -6 -11 -18 -11 -26 0 -12 3 -12 12 -3 7 7 20 12 30
12 10 0 18 7 18 15 0 8 5 15 10 15 6 0 10 -9 10 -19 0 -10 7 -21 15 -25 11 -4
14 -13 9 -31 -4 -15 -2 -25 5 -25 6 0 11 -13 11 -30 0 -36 13 -38 34 -8 9 12
16 17 16 11 0 -6 -7 -18 -15 -27 -8 -8 -15 -19 -15 -25 0 -17 23 -61 29 -56
11 6 28 -9 35 -32 6 -17 3 -23 -9 -23 -9 0 -14 -4 -10 -10 3 -5 12 -7 19 -4 8
3 17 0 22 -7 4 -7 2 -15 -4 -17 -19 -6 -14 -32 7 -32 18 0 19 -6 15 -76 -2
-42 -7 -81 -10 -85 -3 -5 -2 -9 3 -8 22 4 25 -3 7 -17 -10 -8 -13 -12 -6 -9 8
5 15 -1 19 -13 3 -13 11 -18 19 -15 19 7 18 -12 -3 -44 -16 -25 -16 -26 4 -43
l22 -17 -22 -12 c-16 -9 -31 -9 -49 -2 -23 9 -25 7 -21 -10 3 -10 12 -19 19
-19 20 0 17 -30 -3 -46 -17 -12 -17 -14 2 -28 20 -15 20 -15 -2 -16 -14 0 -23
6 -23 15 0 8 -4 15 -10 15 -14 0 -13 -23 2 -38 8 -8 8 -15 -2 -27 -14 -17 -10
-18 65 -16 32 0 36 -1 20 -9 -11 -5 -35 -9 -53 -9 -20 -1 -31 -5 -27 -11 4 -6
16 -10 28 -8 19 3 21 -1 19 -34 -3 -29 1 -37 17 -43 12 -3 21 -11 21 -16 0 -6
-9 -7 -20 -4 -11 3 -20 3 -20 -2 0 -12 -78 -15 -85 -3 -3 5 -14 10 -23 9 -12
0 -13 -2 -3 -6 25 -10 51 -42 45 -58 -4 -10 0 -15 10 -15 19 0 21 -11 4 -28
-9 -9 -9 -12 0 -12 7 0 12 -4 12 -10 0 -5 -9 -10 -20 -10 -29 0 -25 -17 5 -24
33 -8 47 1 40 25 -4 13 -2 19 9 19 10 0 13 -6 10 -15 -4 -8 -2 -15 4 -15 13 0
12 -51 -2 -65 -6 -7 -17 -10 -25 -7 -7 2 -17 -1 -21 -8 -6 -10 -16 -11 -42 -3
l-33 11 31 1 c38 1 84 22 84 39 0 16 -15 15 -30 -3 -8 -10 -25 -13 -54 -10
-22 2 -44 4 -48 4 -5 1 -8 6 -8 12 0 7 11 8 30 4 29 -6 42 6 21 20 -6 3 -6 17
-1 35 7 25 6 30 -9 30 -9 0 -23 -6 -30 -12 -11 -11 -13 -10 -7 5 3 10 6 23 6
28 0 6 5 7 10 4 6 -3 10 2 10 12 -1 15 -5 13 -23 -9 -28 -35 -46 -36 -39 -3 2
14 8 25 12 25 4 0 10 8 14 18 3 9 9 23 12 31 4 9 2 11 -5 6 -7 -4 -19 1 -27
11 -11 14 -17 15 -20 7 -3 -7 -14 -13 -24 -13 -13 0 -17 7 -16 25 1 19 7 25
24 25 13 0 21 4 18 9 -3 4 -18 6 -32 3 -23 -4 -26 -2 -22 15 3 12 2 27 -3 34
-6 10 -9 8 -9 -8 0 -13 -4 -23 -10 -23 -5 0 -10 -4 -10 -10 0 -5 7 -10 15 -10
8 0 15 -5 15 -11 0 -25 -35 -2 -38 25 -4 28 -4 28 -18 7 -9 -12 -27 -21 -42
-22 -16 0 -21 -3 -12 -6 18 -7 30 -23 30 -42 0 -11 -5 -9 -19 5 -10 11 -33 27
-51 34 -27 11 -33 11 -40 0 -7 -11 -11 -11 -24 -1 -20 17 -66 6 -66 -15 0 -13
3 -14 14 -5 11 9 15 5 18 -26 6 -46 5 -48 -15 -28 -9 9 -20 14 -24 13 -4 -2
-9 11 -11 28 -3 27 -7 31 -34 31 -17 0 -40 -9 -50 -19 -10 -10 -23 -16 -28
-13 -6 4 -10 1 -10 -4 0 -6 10 -11 23 -12 12 0 16 -3 9 -6 -6 -2 -12 -14 -12
-25 0 -14 5 -18 15 -15 8 4 17 2 20 -3 6 -10 -29 -32 -38 -23 -4 3 -13 1 -20
-6 -16 -13 -50 -4 -41 11 3 5 17 13 30 18 13 5 24 15 24 21 0 6 -6 9 -13 6
-18 -7 -37 26 -31 50 4 13 0 22 -9 26 -10 4 -17 -2 -21 -19 -6 -24 -30 -32
-41 -14 -3 5 0 18 7 29 9 15 9 23 0 34 -13 15 -6 47 9 47 5 0 9 7 9 16 0 11
-6 14 -20 9 -18 -6 -20 -2 -21 32 -1 21 -5 49 -9 63 -4 14 -8 -910 -9 -2052
l-1 -2078 2725 0 2725 0 0 1460 c0 1308 -2 1460 -16 1460 -8 0 -13 -4 -10 -9
3 -5 -1 -11 -9 -15 -8 -3 -15 -1 -15 4 0 6 -7 10 -16 10 -8 0 -12 -4 -9 -10 6
-10 -5 -12 -67 -14 -16 0 -28 -4 -28 -8 0 -5 -4 -8 -10 -8 -5 0 -10 7 -10 15
0 21 -27 19 -39 -2 -6 -11 -11 -13 -11 -5 0 14 -127 14 -146 0 -7 -5 -52 -8
-100 -8 -49 0 -111 -2 -139 -5 -54 -7 -207 26 -213 45 -5 13 -29 13 -34 -1 -4
-13 -103 -18 -143 -7 -16 5 -61 13 -100 19 -38 6 -77 12 -85 14 -8 1 -26 7
-40 13 -14 5 -40 16 -57 22 -18 7 -33 18 -33 24 0 6 -4 6 -9 -2 -7 -11 -16
-10 -49 7 -23 12 -48 21 -57 21 -8 0 -36 19 -62 43 -26 23 -43 35 -38 27 4 -8
-3 -5 -17 8 -28 26 -40 28 -32 7 10 -24 -8 -17 -43 17 -18 18 -33 26 -33 19 0
-8 -6 -11 -15 -7 -20 7 -19 -8 1 -24 8 -8 22 -29 29 -47 8 -19 19 -32 24 -29
5 4 9 -2 9 -11 0 -10 3 -27 7 -38 4 -11 -8 -2 -26 20 -56 65 -71 81 -64 68 3
-7 8 -23 10 -35 3 -13 7 -36 11 -52 4 -19 3 -26 -5 -22 -6 4 -11 14 -11 22 0
8 -5 14 -10 14 -15 0 -94 85 -132 141 -18 27 -37 49 -41 49 -5 0 -22 9 -37 20
-26 19 -29 19 -25 3 2 -10 6 -26 10 -35 4 -11 3 -18 -5 -18 -6 0 -8 -5 -4 -12
4 -7 -2 -5 -13 5 -25 22 -32 22 -26 -2 3 -11 -2 -21 -11 -24 -9 -4 -16 -2 -16
3 0 6 -9 1 -20 -10 -15 -15 -18 -25 -10 -44 6 -18 5 -26 -5 -30 -8 -2 -16 0
-19 7 -4 7 -4 0 -2 -15 4 -37 -7 -35 -39 5 -16 18 -22 23 -16 10 6 -12 10 -26
9 -30 -4 -14 13 -53 23 -53 5 0 9 -9 9 -20 0 -11 7 -38 16 -59 31 -77 8 -63
-26 15 -38 89 -50 108 -42 67 7 -41 -2 -27 -37 57 -17 41 -40 89 -52 105 l-20
30 6 -32 c13 -64 -20 -25 -80 95 -33 64 -66 125 -75 135 -8 10 -27 32 -42 49
-16 18 -28 36 -28 42 0 6 -4 5 -9 -3 -17 -26 -98 69 -165 194 -47 86 -108 169
-141 191 -20 13 -28 14 -40 4 -12 -10 -16 -9 -21 4 -5 13 -9 14 -20 5 -12 -9
-18 -8 -29 7 -13 18 -14 18 -9 -2 5 -17 0 -22 -25 -27 -25 -5 -30 -11 -28 -29
2 -12 12 -25 23 -29 16 -7 15 -8 -6 -6 -14 2 -48 14 -75 28 -28 14 -55 24 -62
22 -6 -2 -23 3 -36 12 -14 9 -36 18 -50 20 -75 14 -217 1 -217 -19 0 -6 -4 -5
-9 3 -8 12 -13 12 -34 -2 -13 -8 -39 -18 -58 -22 -20 -4 -54 -24 -82 -51 -50
-45 -82 -58 -70 -27 4 11 3 14 -6 9 -6 -4 -9 -16 -6 -26 7 -21 -19 -40 -45
-33 -9 2 -22 -3 -29 -11 -8 -9 -26 -16 -42 -16 -34 0 -99 -53 -99 -82 0 -36
-19 -58 -50 -58 -23 0 -30 -5 -30 -20 0 -26 -21 -71 -31 -65 -4 3 -20 -12 -36
-33 -15 -22 -33 -37 -40 -35 -6 2 -14 -1 -18 -6 -3 -6 -15 -11 -25 -11 -10 0
-21 -8 -25 -18 -5 -17 -53 -48 -61 -40 -2 2 -7 15 -13 28 -10 24 -10 25 -10 3
-1 -13 -5 -23 -11 -23 -5 0 -7 -6 -4 -13 3 -8 -2 -20 -11 -27 -14 -11 -17 -10
-22 8 -8 34 -31 26 -39 -13 -8 -46 -21 -45 -29 3 -13 72 -19 80 -26 32 -4 -34
-6 -22 -7 48 -1 59 -6 91 -12 87 -13 -8 -13 -165 0 -236 17 -92 19 -128 10
-134 -14 -9 -28 26 -35 86 -4 30 -12 68 -18 84 l-12 30 -5 -45 c-3 -25 -2 -50
2 -55 12 -18 19 -109 9 -124 -19 -29 -40 7 -47 80 -9 97 -24 76 -21 -31 2 -86
1 -91 -25 -115 -18 -16 -28 -20 -31 -12 -3 7 -6 -1 -7 -18 -1 -16 -4 -24 -7
-17 -7 17 -23 15 -23 -4 0 -9 -5 -12 -12 -8 -7 4 -6 -1 3 -12 14 -17 14 -22
-2 -52 l-17 -33 -11 33 c-18 56 -31 174 -26 240 3 49 2 55 -5 28 -6 -28 -8
-19 -6 42 1 42 -1 76 -4 75 -3 -1 -6 3 -7 8 -2 6 2 11 7 11 21 3 22 4 10 19
-9 10 -9 15 -1 15 6 0 11 5 11 11 0 5 -5 7 -10 4 -6 -3 -10 3 -10 13 0 11 -3
34 -6 51 -4 20 -3 31 5 31 6 0 11 -9 11 -19 0 -11 5 -23 12 -27 8 -5 9 0 5 16
-4 16 1 29 20 46 14 13 24 27 20 30 -7 8 -35 -8 -36 -21 -2 -19 -24 -10 -32
13 -7 19 -5 22 19 23 42 2 47 3 49 14 1 6 -5 9 -14 7 -11 -2 -14 1 -10 12 11
28 -10 66 -37 66 -13 0 -26 -5 -28 -12 -3 -8 -9 -8 -24 0 -17 10 -17 11 -1 12
9 0 17 5 17 11 0 8 13 10 38 6 20 -4 44 -2 52 3 10 6 11 10 3 10 -7 0 -13 6
-13 14 0 8 -6 17 -12 19 -8 3 -6 6 4 6 11 1 21 14 26 34 8 28 10 30 18 12 17
-42 54 -61 54 -27 1 15 2 15 17 -3 l16 -20 -8 20 c-4 11 -10 28 -12 37 -3 10
-9 15 -14 12 -5 -3 -9 0 -9 6 0 19 24 6 38 -21 13 -24 13 -24 7 6 l-6 29 21
-19 c18 -16 20 -16 14 -2 -3 10 -17 20 -30 23 -13 3 -24 11 -24 16 0 6 -11 8
-24 6 -15 -3 -27 2 -35 14 -15 23 -14 28 4 28 8 0 15 -4 15 -10 0 -5 9 -10 20
-10 24 0 27 15 4 24 -10 4 -13 13 -9 26 4 13 1 22 -9 26 -17 7 -22 34 -6 34 5
0 7 7 3 16 -4 11 -2 15 6 13 7 -3 13 -9 14 -14 1 -12 23 -35 32 -35 3 0 3 5 0
10 -3 6 0 10 8 10 19 0 11 -39 -9 -47 -29 -11 -12 -23 31 -23 26 0 45 -5 45
-11 0 -6 7 -8 16 -5 9 4 23 1 31 -6 13 -10 14 -8 11 12 -2 21 -9 25 -35 25
-20 0 -36 7 -43 18 -10 17 -9 18 12 12 13 -4 29 -10 37 -13 10 -4 13 1 9 21
-3 14 0 28 6 31 6 2 3 5 -6 5 -23 1 -23 17 -2 25 9 4 14 9 11 13 -4 3 1 12 11
19 15 12 13 13 -17 7 -31 -5 -33 -4 -27 15 4 12 3 29 -2 39 -7 11 -6 23 2 35
9 16 8 22 -7 33 -12 8 -17 22 -15 37 4 23 5 23 16 -4 6 -16 16 -28 20 -28 5 0
8 -13 6 -30 -4 -33 6 -43 31 -34 13 5 14 9 3 15 -15 9 -17 38 -4 57 4 6 5 12
1 12 -4 0 -2 7 5 15 6 8 9 19 5 25 -9 15 -25 2 -18 -15 3 -9 -1 -15 -8 -15 -8
0 -15 11 -15 24 -2 21 3 25 30 28 17 2 30 7 28 13 -1 5 -18 8 -37 6 -38 -3
-45 10 -21 42 18 23 29 22 14 -3 -7 -10 -9 -23 -5 -27 5 -4 12 -2 16 5 6 10
15 10 35 2 24 -9 28 -15 24 -40 -3 -17 -1 -30 4 -30 4 0 8 9 8 19 0 23 16 37
23 19 3 -10 7 -10 20 0 18 15 37 8 37 -14 0 -8 5 -14 10 -14 6 0 10 5 10 11 0
26 20 -6 22 -34 1 -21 4 -12 8 23 l7 55 3 -50 3 -50 7 50 c7 49 7 50 9 10 1
-30 4 -36 11 -25 8 13 10 12 10 -3 0 -10 5 -15 10 -12 6 3 10 1 10 -5 0 -7 7
-10 15 -6 8 3 19 -2 24 -12 8 -13 10 -3 11 40 0 31 -4 58 -8 60 -5 2 -12 15
-16 31 -5 20 -3 27 8 27 8 0 16 4 18 10 5 14 48 0 48 -16 0 -8 9 -14 20 -14
18 0 26 -17 20 -45 -1 -5 2 -7 6 -3 4 4 14 2 22 -5 13 -10 14 -9 9 8 -22 69
-14 115 18 115 6 0 4 -4 -4 -9 -18 -11 -1 -87 18 -83 9 2 12 -5 8 -20 -3 -13
-1 -32 4 -43 8 -16 8 -15 4 8 -5 23 -2 27 16 27 21 0 21 1 -4 23 -35 30 -36
57 -1 57 14 0 23 -4 20 -9 -4 -5 -2 -21 4 -35 l9 -25 43 18 c27 12 42 24 42
35 -2 19 17 21 35 4 6 -7 17 -13 24 -13 7 0 12 -10 12 -22 1 -37 14 -38 27 -3
11 33 11 33 20 10 7 -18 5 -27 -6 -36 -9 -6 -13 -14 -9 -18 3 -3 15 2 25 11
16 15 23 15 54 4 20 -7 38 -10 41 -8 3 3 17 1 31 -4 20 -8 23 -7 14 4 -6 7 -9
27 -7 45 2 18 0 32 -5 32 -6 0 -9 3 -9 8 5 30 -2 51 -16 46 -8 -4 -15 -13 -15
-21 0 -18 -32 -13 -38 6 -3 8 0 11 5 8 6 -4 22 7 37 22 26 27 27 30 9 40 -17
10 -17 10 2 11 43 0 65 -12 65 -36 0 -12 5 -26 10 -29 6 -3 10 1 10 9 0 31 20
15 21 -16 1 -30 2 -31 8 -8 l6 25 22 -22 c20 -21 21 -23 5 -33 -15 -9 -15 -10
3 -8 11 2 20 -3 20 -10 0 -7 7 -17 15 -23 13 -8 13 -11 -2 -23 -10 -7 -18 -17
-18 -21 0 -4 6 -2 14 4 11 9 15 9 19 -1 2 -7 8 -9 13 -5 5 4 3 11 -3 15 -15 9
5 36 32 44 11 3 28 9 38 13 13 6 17 2 17 -16 0 -22 2 -21 16 8 9 18 27 43 40
56 13 13 25 32 27 43 5 34 17 46 33 33 10 -8 18 -9 27 0 11 8 16 5 25 -14 12
-27 4 -33 -16 -13 -10 10 -14 10 -21 0 -4 -7 -14 -12 -22 -10 -8 2 -13 -4 -13
-14 1 -10 -2 -18 -7 -18 -6 0 -4 -10 3 -22 7 -13 11 -27 10 -31 -1 -5 2 -6 8
-2 5 3 10 1 10 -4 0 -6 5 -11 11 -11 5 0 7 5 3 12 -4 6 -3 8 4 5 11 -7 43 -92
41 -111 0 -6 -11 12 -25 39 -13 28 -24 42 -24 32 0 -10 10 -37 21 -59 13 -25
17 -44 11 -46 -7 -2 -7 -12 1 -31 7 -20 31 -38 92 -69 55 -28 101 -61 136 -98
30 -31 69 -70 88 -88 19 -17 60 -55 91 -83 31 -29 62 -53 68 -53 7 0 12 -5 12
-11 0 -5 5 -7 10 -4 6 4 10 3 9 -2 -3 -19 2 -34 10 -29 5 4 11 2 13 -3 5 -13
146 -101 163 -101 7 0 17 5 20 10 10 16 26 0 20 -19 -8 -25 37 -45 57 -25 13
13 17 12 32 -5 13 -14 14 -21 5 -27 -7 -4 -10 -3 -6 3 6 9 -12 23 -29 23 -11
0 -2 -17 17 -28 15 -10 24 -10 34 -2 10 8 15 8 21 -1 5 -8 3 -9 -6 -4 -9 5
-11 4 -6 -3 5 -9 13 -9 26 -2 16 9 18 8 13 -7 -5 -13 -3 -15 11 -10 10 4 15 3
11 -3 -7 -12 98 -65 148 -74 21 -4 35 -10 33 -14 -3 -5 5 -9 16 -9 11 -1 93
-22 182 -47 152 -42 252 -65 286 -64 8 0 29 -4 45 -9 17 -5 44 -9 62 -9 17 1
29 -3 26 -8 -3 -5 8 -7 26 -4 17 2 31 0 31 -5 0 -6 22 -7 55 -4 30 3 57 2 60
-3 3 -5 27 -12 53 -15 26 -3 69 -12 95 -20 32 -10 55 -12 66 -5 10 5 27 6 39
3 14 -3 22 -1 22 8 0 7 3 9 6 6 4 -4 21 3 38 15 l31 21 -27 -27 c-16 -15 -28
-29 -28 -31 0 -22 302 -57 315 -36 3 6 2 11 -2 11 -5 0 -17 6 -27 13 -16 12
-16 15 -2 42 9 17 16 24 16 16 0 -8 6 -11 18 -6 9 4 24 9 32 12 13 4 13 4 0
-6 -13 -9 -13 -11 0 -11 12 -1 12 -3 -3 -14 -21 -16 -3 -27 28 -16 12 4 31 0
49 -11 16 -10 33 -16 37 -13 5 3 21 -1 36 -9 18 -9 40 -11 60 -7 17 4 53 4 80
-1 26 -4 58 -5 69 -2 12 2 25 0 28 -6 4 -6 17 -11 29 -11 20 0 20 0 1 15 -18
13 -18 14 4 8 13 -3 26 -12 29 -19 3 -8 15 -14 27 -14 17 0 18 2 6 10 -13 8
-12 10 3 10 16 0 17 63 17 1190 l0 1190 -561 0 c-371 0 -558 -3 -554 -10 3 -5
1 -10 -4 -10 -6 0 -11 5 -11 10 0 7 -192 10 -555 10 -315 0 -555 -4 -555 -9 0
-15 -51 -20 -57 -5 -6 17 -133 20 -133 4 0 -5 -7 -10 -16 -10 -8 0 -12 5 -9
10 4 7 -88 10 -274 9 -155 0 -279 -5 -276 -9 3 -5 1 -11 -5 -15 -5 -3 -10 0
-10 8 0 10 -19 14 -82 14 -46 1 -89 -3 -95 -9 -9 -7 -13 -7 -13 1 0 7 -20 11
-50 11 -27 0 -50 -4 -50 -9 0 -11 -31 -24 -39 -16 -3 3 1 10 9 15 11 7 7 10
-17 10 -17 0 -34 -6 -36 -12 -4 -10 -6 -10 -6 0 -1 8 -19 12 -55 12 -34 0 -56
-5 -59 -12 -4 -9 -8 -10 -14 -2 -13 17 -604 19 -615 2 -6 -10 -10 -10 -16 -1
-6 10 -121 12 -495 11 -271 0 -484 -5 -481 -9 3 -5 -1 -9 -10 -9 -8 0 -16 5
-18 12 -3 7 -7 5 -11 -6z m843 -6 c0 -5 -4 -10 -10 -10 -5 0 -10 5 -10 10 0 6
5 10 10 10 6 0 10 -4 10 -10z m207 -12 c-3 -8 -6 -5 -6 6 -1 11 2 17 5 13 3
-3 4 -12 1 -19z m1153 18 c0 -3 -4 -8 -10 -11 -5 -3 -10 -1 -10 4 0 6 5 11 10
11 6 0 10 -2 10 -4z m780 -6 c0 -5 -4 -10 -10 -10 -5 0 -10 5 -10 10 0 6 5 10
10 10 6 0 10 -4 10 -10z m-2599 -20 c5 0 9 -4 9 -8 0 -4 -9 -8 -19 -8 -11 0
-18 3 -15 7 2 4 1 9 -3 12 -5 2 -2 2 5 0 8 -1 18 -3 23 -3z m216 4 c-3 -3 -12
-4 -19 -1 -8 3 -5 6 6 6 11 1 17 -2 13 -5z m983 -10 c0 -8 -5 -12 -10 -9 -6 4
-8 11 -5 16 9 14 15 11 15 -7z m850 0 c0 -8 -5 -12 -10 -9 -6 4 -8 11 -5 16 9
14 15 11 15 -7z m-2374 -10 c-4 -11 -2 -15 8 -11 17 7 30 -19 14 -29 -7 -4 -8
-3 -4 4 4 7 1 12 -8 12 -20 0 -21 -16 -2 -23 16 -6 10 -47 -6 -47 -6 0 -8 6
-5 14 3 8 -1 20 -8 26 -9 8 -13 21 -9 36 5 19 3 23 -10 18 -9 -3 -16 -1 -16 5
0 6 12 11 26 11 20 0 25 -4 20 -16z m634 12 c0 -3 -4 -8 -10 -11 -5 -3 -10 -1
-10 4 0 6 5 11 10 11 6 0 10 -2 10 -4z m120 -20 c0 -8 -5 -18 -12 -22 -6 -4
-8 -3 -4 4 3 6 -2 15 -11 21 -16 9 -16 10 5 11 13 0 22 -6 22 -14z m-626 -11
c30 -5 36 -9 26 -18 -10 -9 -14 -9 -17 1 -3 6 -9 12 -14 12 -4 0 -6 -7 -3 -15
4 -9 0 -15 -10 -15 -10 0 -13 5 -9 18 7 16 6 16 -11 0 -18 -19 -72 -25 -61 -8
4 6 11 7 17 4 7 -4 8 -2 4 4 -10 17 3 34 22 28 10 -2 34 -7 56 -11z m3996 0
c0 -8 5 -15 10 -15 6 0 10 -4 10 -10 0 -5 -12 -10 -27 -10 -20 0 -24 3 -16 11
6 6 9 18 6 25 -3 8 0 14 6 14 6 0 11 -7 11 -15z m-3850 -5 c5 8 12 11 16 8 3
-4 0 -14 -9 -22 -13 -13 -17 -13 -33 7 -18 20 -18 21 -1 7 16 -12 20 -12 27 0z
m32 -22 c-8 -8 -9 -4 -5 13 4 13 8 18 11 10 2 -7 -1 -18 -6 -23z m526 15 c2
-7 -3 -13 -11 -13 -9 0 -18 6 -20 13 -4 9 -8 8 -16 -3 -5 -8 -13 -11 -18 -7
-10 11 18 28 41 25 11 -2 21 -9 24 -15z m307 -23 c3 -5 2 -10 -4 -10 -5 0 -13
5 -16 10 -3 6 -2 10 4 10 5 0 13 -4 16 -10z m2215 0 c0 -5 -2 -10 -4 -10 -3 0
-8 5 -11 10 -3 6 -1 10 4 10 6 0 11 -4 11 -10z m-3285 -20 c3 -5 15 -10 26
-10 27 0 24 -17 -5 -22 -16 -3 -27 0 -31 10 -3 8 -12 12 -20 9 -9 -4 -12 -1
-8 9 6 16 29 19 38 4z m71 -19 c-3 -5 1 -12 10 -15 9 -4 15 -9 12 -11 -3 -3
-13 -3 -22 1 -18 7 -22 34 -5 34 5 0 8 -4 5 -9z m271 -27 c-3 -3 -12 -4 -19
-1 -8 3 -5 6 6 6 11 1 17 -2 13 -5z m213 -8 c0 -3 -4 -8 -10 -11 -5 -3 -10 -1
-10 4 0 6 5 11 10 11 6 0 10 -2 10 -4z m2530 0 c0 -3 -4 -8 -10 -11 -5 -3 -10
-1 -10 4 0 6 5 11 10 11 6 0 10 -2 10 -4z m-2743 -42 c-3 -3 -12 -4 -19 -1 -8
3 -5 6 6 6 11 1 17 -2 13 -5z m3138 -4 c3 -5 1 -10 -4 -10 -6 0 -11 5 -11 10
0 6 2 10 4 10 3 0 8 -4 11 -10z m-3387 -15 c30 -9 22 -17 -22 -21 -29 -2 -34
0 -33 17 1 12 7 17 17 15 8 -3 25 -7 38 -11z m449 9 c-3 -3 -12 -4 -19 -1 -8
3 -5 6 6 6 11 1 17 -2 13 -5z m98 -14 c3 -6 -1 -7 -9 -4 -18 7 -21 14 -7 14 6
0 13 -4 16 -10z m430 0 c-3 -5 -10 -10 -16 -10 -5 0 -9 5 -9 10 0 6 7 10 16
10 8 0 12 -4 9 -10z m-1044 -37 c13 -15 12 -15 -8 -4 -16 8 -23 8 -23 1 0 -6
-5 -8 -10 -5 -13 8 -3 25 14 25 8 0 20 -7 27 -17z m2120 -6 c-10 -9 -11 -8 -5
6 3 10 9 15 12 12 3 -3 0 -11 -7 -18z m-706 -37 c3 -5 1 -10 -4 -10 -6 0 -11
5 -11 10 0 6 2 10 4 10 3 0 8 -4 11 -10z m502 -12 c-3 -8 -6 -5 -6 6 -1 11 2
17 5 13 3 -3 4 -12 1 -19z m-367 -4 c0 -8 -4 -12 -10 -9 -5 3 -10 10 -10 16 0
5 5 9 10 9 6 0 10 -7 10 -16z m660 6 c0 -5 -4 -10 -10 -10 -5 0 -10 5 -10 10
0 6 5 10 10 10 6 0 10 -4 10 -10z m273 -6 c9 -10 -4 -34 -19 -34 -8 0 -14 9
-14 20 0 19 19 27 33 14z m-2363 -24 c0 -5 -4 -10 -10 -10 -5 0 -10 5 -10 10
0 6 5 10 10 10 6 0 10 -4 10 -10z m1260 -160 c0 -5 -4 -10 -10 -10 -5 0 -10 5
-10 10 0 6 5 10 10 10 6 0 10 -4 10 -10z m-1196 -29 c11 -4 15 -10 9 -14 -5
-3 -19 0 -29 8 -20 15 -11 18 20 6z m368 -78 c-6 -2 -10 -9 -7 -13 3 -5 1 -11
-5 -15 -5 -3 -10 0 -10 8 0 17 10 27 24 26 6 0 5 -3 -2 -6z m1985 -30 c-4 -3
-2 -12 5 -20 9 -11 7 -13 -15 -9 -15 2 -26 2 -24 -2 2 -8 -13 -11 -28 -6 -5 2
-23 5 -40 6 -24 3 -18 7 35 20 36 8 67 16 69 17 2 0 1 -2 -2 -6z m90 -19 c-3
-3 -12 -4 -19 -1 -8 3 -5 6 6 6 11 1 17 -2 13 -5z m-2079 -32 c-10 -2 -18 -11
-18 -20 0 -13 -2 -13 -14 3 -19 26 -13 34 21 27 19 -4 23 -7 11 -10z m1843 4
c-7 -8 -23 -17 -37 -20 -13 -4 -29 -17 -34 -30 -7 -18 -14 -22 -33 -19 -19 4
-29 -1 -43 -21 -9 -15 -22 -25 -27 -23 -18 6 -47 -31 -47 -59 0 -22 -2 -24
-14 -14 -13 10 -13 7 -3 -20 10 -25 9 -33 -3 -40 -11 -7 -19 -5 -30 9 -16 19
-51 14 -65 -8 -3 -6 -11 -11 -17 -11 -5 0 4 14 22 30 18 17 29 30 24 30 -4 0
1 7 12 16 10 8 13 12 5 8 -9 -5 -12 -3 -7 5 4 6 11 9 16 6 8 -5 97 65 112 89
4 6 8 7 8 2 0 -5 8 -2 18 7 19 18 131 77 146 77 5 0 3 -6 -3 -14z m-1651 0 c0
-2 -7 -9 -15 -16 -12 -10 -15 -10 -15 4 0 9 7 16 15 16 8 0 15 -2 15 -4z m488
-24 c2 -7 -3 -12 -12 -12 -9 0 -16 7 -16 16 0 17 22 14 28 -4z m-528 -6 c0 -3
-4 -8 -10 -11 -5 -3 -10 -1 -10 4 0 6 5 11 10 11 6 0 10 -2 10 -4z m-140 -14
c0 -13 -12 -22 -22 -16 -10 6 -1 24 13 24 5 0 9 -4 9 -8z m-240 -32 c12 -8 11
-10 -7 -10 -13 0 -23 5 -23 10 0 13 11 13 30 0z m133 -3 c3 -8 1 -20 -4 -28
-5 -9 -9 -9 -9 -2 0 6 -3 18 -6 27 -3 9 -2 16 4 16 5 0 12 -6 15 -13z m99 4
c39 11 46 5 23 -17 -12 -13 -19 -14 -24 -5 -4 7 -14 11 -21 9 -7 -2 -14 3 -15
10 -2 7 -1 8 1 3 3 -6 17 -6 36 0z m145 -33 c-3 -8 -6 -5 -6 6 -1 11 2 17 5
13 3 -3 4 -12 1 -19z m232 -40 c1 -10 -3 -18 -8 -18 -10 0 -20 67 -12 76 6 6
18 -30 20 -58z m541 58 c0 -3 -4 -8 -10 -11 -5 -3 -10 -1 -10 4 0 6 5 11 10
11 6 0 10 -2 10 -4z m-898 -50 c5 -8 16 -6 35 5 27 15 28 14 29 -8 2 -25 -11
-31 -20 -10 -3 6 -3 1 0 -13 3 -14 13 -31 23 -39 14 -12 14 -12 -6 -6 -14 4
-23 2 -23 -4 0 -6 -3 -10 -7 -10 -22 4 -44 -2 -39 -10 3 -4 18 -6 32 -3 19 3
25 1 20 -7 -4 -6 -1 -11 8 -11 21 0 30 -18 16 -35 -10 -12 -9 -16 5 -21 13 -5
14 -9 3 -15 -9 -6 -7 -9 10 -9 24 0 68 -37 57 -48 -4 -4 -12 0 -18 8 -7 8 -16
15 -22 16 -28 1 -65 18 -65 29 0 16 -27 28 -35 15 -3 -5 3 -11 12 -13 14 -4
14 -5 -4 -6 -19 -1 -21 3 -16 40 5 35 2 44 -17 59 l-23 17 42 7 c54 8 53 26
-1 27 -35 1 -38 2 -18 8 22 6 23 8 7 14 -11 4 -24 4 -30 0 -7 -4 -8 0 -4 11 4
10 7 22 7 27 0 11 32 -1 42 -15z m-56 -2 c-3 -9 -6 -18 -6 -20 0 -2 -6 -4 -13
-4 -9 0 -12 -11 -9 -35 3 -26 9 -35 23 -35 10 0 19 -4 19 -10 0 -5 -7 -7 -15
-4 -8 4 -15 1 -15 -5 0 -6 -4 -11 -10 -11 -5 0 -9 3 -8 8 1 4 -2 24 -6 44 -6
28 -4 42 11 62 20 28 38 35 29 10z m374 6 c0 -5 -4 -10 -10 -10 -5 0 -10 5
-10 10 0 6 5 10 10 10 6 0 10 -4 10 -10z m612 -20 c3 -16 1 -30 -4 -30 -4 0
-8 14 -8 30 0 17 2 30 4 30 2 0 6 -13 8 -30z m-818 -25 c3 -8 12 -15 21 -15
11 0 14 -10 13 -40 -1 -22 -5 -40 -10 -40 -4 0 -8 4 -8 9 0 5 -10 12 -22 16
-20 6 -20 8 -5 12 23 6 21 28 -5 53 -17 16 -18 20 -6 20 9 0 18 -7 22 -15z
m553 -27 c-3 -7 -5 -2 -5 12 0 14 2 19 5 13 2 -7 2 -19 0 -25z m1389 9 c4 -4
-5 -7 -20 -7 -15 0 -25 4 -22 9 7 10 31 9 42 -2z m-1671 -17 c3 -5 -1 -10 -9
-10 -9 0 -16 5 -16 10 0 6 4 10 9 10 6 0 13 -4 16 -10z m150 0 c3 -5 -1 -10
-9 -10 -9 0 -16 5 -16 10 0 6 4 10 9 10 6 0 13 -4 16 -10z m425 0 c0 -5 -9
-10 -20 -10 -11 0 -20 5 -20 10 0 6 9 10 20 10 11 0 20 -4 20 -10z m-766 -6
c22 -8 20 -41 -3 -53 -15 -9 -20 -7 -24 10 -5 19 0 49 8 49 2 0 10 -3 19 -6z
m806 -4 c0 -5 -5 -10 -11 -10 -5 0 -7 5 -4 10 3 6 8 10 11 10 2 0 4 -4 4 -10z
m-55 -17 c-11 -3 -23 -10 -27 -17 -5 -7 -8 -7 -8 0 0 16 11 24 34 23 20 -1 20
-1 1 -6z m55 -23 c0 -13 -7 -20 -20 -20 -25 0 -25 9 -2 26 22 17 22 17 22 -6z
m-588 -2 c-8 -8 -8 -17 -1 -31 8 -14 7 -22 -2 -31 -9 -8 -11 -7 -6 6 3 9 0 19
-8 22 -22 8 -14 46 9 46 15 0 17 -3 8 -12z m2413 3 c-12 -12 -65 -25 -65 -17
0 8 39 24 60 25 9 1 10 -2 5 -8z m-2858 -38 c-14 -14 -19 -15 -29 -4 -11 10
-9 15 6 27 27 20 47 0 23 -23z m743 17 c0 -5 -2 -10 -4 -10 -3 0 -8 5 -11 10
-3 6 -1 10 4 10 6 0 11 -4 11 -10z m-570 -9 c0 -5 -7 -11 -15 -15 -15 -5 -20
5 -8 17 9 10 23 9 23 -2z m885 -1 c-3 -5 -10 -10 -16 -10 -5 0 -9 5 -9 10 0 6
7 10 16 10 8 0 12 -4 9 -10z m-27 -9 c9 -5 25 -12 35 -15 10 -3 17 -15 17 -30
0 -14 7 -29 16 -34 15 -8 14 -10 -2 -16 -24 -9 -42 24 -35 67 0 4 -19 7 -44 7
-35 0 -43 3 -39 15 7 17 26 19 52 6z m-800 -21 c4 -13 3 -13 -10 -2 -11 9 -18
10 -23 2 -3 -5 -13 -10 -22 -10 -13 0 -13 3 -3 15 16 19 52 16 58 -5z m332 0
c0 -5 -8 -10 -17 -10 -15 0 -16 2 -3 10 19 12 20 12 20 0z m170 -16 c0 -8 -4
-14 -10 -14 -5 0 -10 9 -10 21 0 11 5 17 10 14 6 -3 10 -13 10 -21z m-863 -46
c-2 -13 -4 -3 -4 22 0 25 2 35 4 23 2 -13 2 -33 0 -45z m1134 44 c-24 -2 -47
0 -52 5 -4 4 15 6 44 3 l52 -5 -44 -3z m-981 -18 c0 -2 -15 -4 -32 -4 -23 0
-29 3 -19 9 12 8 51 4 51 -5z m191 3 c-1 -12 -15 -9 -19 4 -3 6 1 10 8 8 6 -3
11 -8 11 -12z m-151 -17 c0 -11 -5 -20 -12 -20 -6 0 -8 3 -5 7 4 3 2 12 -4 20
-9 10 -8 13 5 13 9 0 16 -8 16 -20z m380 10 c0 -5 -4 -10 -10 -10 -5 0 -10 5
-10 10 0 6 5 10 10 10 6 0 10 -4 10 -10z m600 0 c8 -5 11 -10 5 -11 -24 -3
-61 3 -69 12 -13 12 45 12 64 -1z m387 4 c-3 -3 -12 -4 -19 -1 -8 3 -5 6 6 6
11 1 17 -2 13 -5z m-142 -13 c3 -5 1 -12 -5 -16 -5 -3 -10 1 -10 9 0 18 6 21
15 7z m-1155 -11 c0 -5 -7 -10 -15 -10 -8 0 -15 5 -15 10 0 6 7 10 15 10 8 0
15 -4 15 -10z m91 -13 c-1 -12 -15 -9 -19 4 -3 6 1 10 8 8 6 -3 11 -8 11 -12z
m-204 -3 c-3 -3 -12 -4 -19 -1 -8 3 -5 6 6 6 11 1 17 -2 13 -5z m428 -4 c3 -5
-1 -10 -10 -10 -9 0 -13 5 -10 10 3 6 8 10 10 10 2 0 7 -4 10 -10z m184 -9
c18 -15 19 -20 6 -25 -9 -3 -15 0 -15 9 0 19 -20 19 -34 0 -10 -13 -12 -13
-23 4 -10 16 -9 18 8 14 10 -3 19 0 19 6 0 16 14 13 39 -8z m-624 -11 c3 -5 1
-10 -4 -10 -6 0 -11 5 -11 10 0 6 2 10 4 10 3 0 8 -4 11 -10z m495 -8 c0 -11
-41 -45 -47 -39 -7 8 21 47 34 47 7 0 13 -3 13 -8z m-70 -39 c0 -7 -4 -13 -10
-13 -5 0 -10 12 -10 28 0 21 2 24 10 12 5 -8 10 -21 10 -27z m464 -15 c7 -5 5
-8 -5 -8 -17 0 -32 34 -20 45 3 4 8 -1 10 -12 2 -10 8 -21 15 -25z m-847 -2
c1 -14 -1 -25 -5 -23 -4 2 -15 7 -25 10 -15 6 -16 10 -7 27 15 28 34 20 37
-14z m68 24 c-3 -5 -15 -10 -26 -10 -10 0 -19 5 -19 10 0 6 12 10 26 10 14 0
23 -4 19 -10z m683 -20 c-2 -6 -8 -6 -18 0 -13 9 -13 11 0 20 15 10 25 0 18
-20z m-548 5 c0 -8 -4 -15 -10 -15 -5 0 -10 7 -10 15 0 8 5 15 10 15 6 0 10
-7 10 -15z m40 5 c0 -5 -4 -10 -10 -10 -5 0 -10 5 -10 10 0 6 5 10 10 10 6 0
10 -4 10 -10z m1774 -22 c-5 -8 -44 -12 -44 -4 0 2 -3 11 -6 20 -5 13 -1 13
25 3 16 -6 28 -15 25 -19z m306 12 c0 -5 -4 -10 -10 -10 -5 0 -10 5 -10 10 0
6 5 10 10 10 6 0 10 -4 10 -10z m-2200 -10 c8 -5 12 -11 10 -14 -3 -2 -14 2
-24 10 -22 15 -10 19 14 4z m220 -12 c0 -18 -2 -20 -9 -8 -6 8 -7 18 -5 22 9
14 14 9 14 -14z m455 12 c-3 -5 -10 -10 -16 -10 -5 0 -9 5 -9 10 0 6 7 10 16
10 8 0 12 -4 9 -10z m664 -55 c0 -5 -6 -1 -14 9 -8 11 -15 27 -15 35 1 17 29
-26 29 -44z m-1579 35 c0 -5 -5 -10 -11 -10 -5 0 -7 5 -4 10 3 6 8 10 11 10 2
0 4 -4 4 -10z m170 -6 c0 -8 -5 -12 -10 -9 -6 4 -8 11 -5 16 9 14 15 11 15 -7z
m120 -13 c-13 -24 -30 -28 -30 -6 0 8 7 15 15 15 8 0 15 5 15 12 0 6 3 9 6 6
3 -4 1 -16 -6 -27z m70 -11 c-27 -24 -40 -25 -40 -5 0 8 9 15 19 15 11 0 23 5
26 11 4 6 10 8 13 5 3 -3 -5 -15 -18 -26z m-230 -4 c0 -8 3 -16 8 -19 4 -2 1
-2 -5 -1 -7 2 -13 -3 -13 -11 0 -8 7 -15 15 -15 22 0 18 -15 -4 -17 -21 -2
-32 25 -24 57 6 23 23 27 23 6z m-157 -70 c12 -13 34 -26 47 -29 15 -3 10 -5
-12 -3 -38 2 -51 -10 -23 -20 17 -7 20 -49 5 -59 -16 -10 -11 -33 6 -31 9 0
19 -5 21 -11 6 -16 -19 -17 -35 -1 -7 7 -12 18 -12 26 0 8 -7 20 -16 26 -12 9
-13 17 -5 39 10 24 8 29 -12 37 -21 8 -21 9 6 9 31 1 28 21 -4 21 -10 0 -19 5
-19 10 0 18 31 10 53 -14z m542 5 c3 -5 2 -12 -3 -15 -5 -3 -9 1 -9 9 0 17 3
19 12 6z m2475 -51 c0 -5 -5 -10 -11 -10 -5 0 -7 5 -4 10 3 6 8 10 11 10 2 0
4 -4 4 -10z m-3070 -49 c0 -5 -7 -11 -14 -14 -10 -4 -13 -1 -9 9 6 15 23 19
23 5z m117 -17 c-3 -3 -12 -4 -19 -1 -8 3 -5 6 6 6 11 1 17 -2 13 -5z m3 -90
c0 -8 -7 -14 -15 -14 -17 0 -18 2 -9 24 7 18 24 12 24 -10z m-45 -4 c3 -5 1
-10 -4 -10 -6 0 -11 5 -11 10 0 6 2 10 4 10 3 0 8 -4 11 -10z m-645 -38 l0
-26 -16 22 c-8 12 -12 27 -9 32 10 17 25 1 25 -28z m110 23 c-7 -8 -16 -12
-21 -9 -13 8 -1 24 18 24 13 0 13 -3 3 -15z m184 0 c26 -20 18 -24 -22 -13
-18 5 -30 13 -27 18 9 14 27 12 49 -5z m-154 -42 c0 -10 -4 -25 -10 -33 -8
-13 -9 -13 -14 0 -8 26 -3 50 11 50 7 0 13 -8 13 -17z m248 -8 c-3 -3 -13 -2
-22 1 -14 5 -15 9 -4 15 13 8 36 -6 26 -16z m-543 5 c13 -6 15 -9 5 -9 -8 0
-22 4 -30 9 -18 12 -2 12 25 0z m195 -21 c0 -15 5 -19 15 -15 8 3 15 1 15 -5
0 -6 -10 -9 -22 -7 -23 3 -40 48 -19 48 6 0 11 -9 11 -21z m125 11 c3 -5 1
-10 -4 -10 -6 0 -11 5 -11 10 0 6 2 10 4 10 3 0 8 -4 11 -10z m365 -26 c0 -8
-5 -12 -10 -9 -6 4 -8 11 -5 16 9 14 15 11 15 -7z m-250 -4 c0 -5 -4 -10 -10
-10 -5 0 -10 5 -10 10 0 6 5 10 10 10 6 0 10 -4 10 -10z m-254 -30 c5 0 11
-12 12 -27 1 -26 1 -26 -10 -8 -6 11 -20 27 -30 36 -10 9 -18 20 -18 24 0 5 8
1 18 -8 10 -10 23 -17 28 -17z m2254 10 c0 -5 -5 -10 -11 -10 -5 0 -7 5 -4 10
3 6 8 10 11 10 2 0 4 -4 4 -10z m2662 -5 c0 -5 -5 -11 -11 -13 -6 -2 -11 4
-11 13 0 9 5 15 11 13 6 -2 11 -8 11 -13z m-4388 -10 c3 -8 1 -15 -4 -15 -6 0
-10 7 -10 15 0 8 2 15 4 15 2 0 6 -7 10 -15z m-644 1 c0 -9 -30 -14 -35 -6 -4
6 3 10 14 10 12 0 21 -2 21 -4z m33 -17 c-4 -16 -8 -17 -14 -7 -13 19 -11 28
5 28 9 0 12 -7 9 -21z m44 5 c-3 -3 -12 -4 -19 -1 -8 3 -5 6 6 6 11 1 17 -2
13 -5z m628 -39 c0 -17 -5 -25 -17 -25 -21 0 -22 4 -8 31 15 26 25 24 25 -6z
m-525 5 c0 -5 -4 -10 -10 -10 -5 0 -10 5 -10 10 0 6 5 10 10 10 6 0 10 -4 10
-10z m345 -9 c6 -11 -29 -33 -39 -24 -7 7 12 33 25 33 4 0 10 -4 14 -9z m-321
-30 c3 -5 -1 -14 -9 -21 -13 -10 -15 -9 -15 9 0 21 14 28 24 12z m466 -71 c0
-5 -4 -10 -10 -10 -5 0 -10 5 -10 10 0 6 5 10 10 10 6 0 10 -4 10 -10z m-90
-24 c0 -8 -7 -16 -15 -20 -17 -6 -18 -4 -9 18 8 20 24 21 24 2z m1731 -13 c1
-16 1 -32 0 -37 -1 -5 2 -21 8 -36 15 -44 -3 -55 -24 -16 -19 35 -45 55 -45
36 0 -6 -4 -10 -8 -10 -4 0 -7 12 -7 26 1 16 12 32 31 44 39 25 44 24 45 -7z
m-1646 1 c18 -13 17 -14 -13 -8 -21 4 -32 3 -32 -5 0 -6 -7 -11 -15 -11 -8 0
-15 5 -15 10 0 6 7 10 15 10 8 0 15 5 15 10 0 14 22 12 45 -6z m1552 -36 c-3
-8 -6 -5 -6 6 -1 11 2 17 5 13 3 -3 4 -12 1 -19z m-1781 -44 c-7 -19 -36 -18
-36 2 0 9 8 23 18 30 14 10 18 10 20 -2 2 -8 1 -22 -2 -30z m74 36 c0 -5 -5
-10 -11 -10 -5 0 -7 5 -4 10 3 6 8 10 11 10 2 0 4 -4 4 -10z m2454 -12 c-3 -4
-11 -5 -19 -1 -21 7 -19 12 4 10 11 0 18 -5 15 -9z m-2296 -10 c-6 -18 -28
-21 -28 -4 0 9 7 16 16 16 9 0 14 -5 12 -12z m1782 -8 c0 -5 -4 -12 -10 -15
-5 -3 -10 -4 -10 -1 0 2 -3 12 -6 20 -5 12 -2 15 10 10 9 -3 16 -10 16 -14z
m-846 -12 c-3 -13 -15 -39 -25 -58 l-18 -35 4 50 c2 28 4 53 5 58 0 4 9 7 21
7 17 0 19 -4 13 -22z m1431 -18 c3 -6 -1 -7 -9 -4 -18 7 -21 14 -7 14 6 0 13
-4 16 -10z m-2365 -21 c0 -5 -4 -9 -10 -9 -5 0 -10 7 -10 16 0 8 5 12 10 9 6
-3 10 -10 10 -16z m-73 -15 c-9 -9 -28 6 -21 18 4 6 10 6 17 -1 6 -6 8 -13 4
-17z m1734 -33 c-11 -20 -51 -19 -51 1 0 6 7 8 15 4 8 -3 15 -1 15 4 0 6 -6
10 -12 10 -7 1 -2 7 12 15 21 11 25 12 28 0 2 -8 -1 -23 -7 -34z m234 -13 c13
-10 26 -32 30 -49 5 -22 11 -29 22 -25 13 5 14 1 9 -25 -3 -17 -3 -42 0 -55 5
-20 9 -22 20 -13 11 9 14 8 14 -3 0 -7 9 -21 20 -31 11 -9 20 -23 20 -29 0 -7
9 -19 20 -26 19 -11 22 -9 35 20 14 32 14 32 15 7 0 -14 3 -29 7 -32 11 -12
14 -134 3 -161 -9 -24 -8 -26 9 -16 25 13 41 13 19 -1 -28 -16 -22 -32 10 -24
46 12 67 11 74 -5 5 -12 8 -10 14 8 7 25 6 24 28 16 9 -3 16 -18 16 -33 0 -19
3 -22 9 -12 5 8 7 20 4 27 -2 6 0 15 6 18 6 4 13 -18 17 -56 7 -52 9 -58 14
-33 l6 30 8 -40 c5 -22 9 -67 9 -100 l-1 -60 8 55 7 55 1 -45 c2 -56 -13 -153
-30 -192 -19 -43 -78 -52 -78 -11 0 9 11 47 25 85 29 80 31 96 12 79 -8 -6
-16 -8 -19 -5 -4 3 -9 -7 -12 -23 -13 -60 -152 -113 -141 -54 2 13 -1 18 -9
15 -9 -3 -16 6 -19 25 -4 18 -13 31 -21 31 -8 0 -17 8 -19 18 -4 14 -6 13 -12
-6 -5 -15 -13 -21 -23 -17 -8 3 -20 -2 -26 -10 -12 -16 -46 -12 -46 6 0 4 -6
6 -14 3 -11 -4 -13 0 -9 15 3 11 9 19 13 16 11 -7 0 36 -13 53 -8 10 -14 9
-28 -4 -11 -10 -19 -23 -19 -30 0 -10 -6 -10 -27 1 -15 8 -30 10 -33 5 -7 -11
-72 -5 -99 9 -28 15 -51 51 -51 79 0 13 -4 20 -10 17 -5 -3 -10 0 -10 7 0 8
-3 9 -8 3 -4 -6 -13 -11 -21 -10 -17 0 -28 25 -11 25 10 0 10 4 0 15 -7 8 -19
15 -26 15 -17 0 -17 -4 1 58 12 41 20 52 36 52 12 0 34 9 50 21 16 11 34 17
40 14 6 -4 10 -1 8 6 -4 33 2 38 40 35 22 -2 57 -16 84 -35 50 -34 69 -38 86
-17 12 15 10 36 -8 81 -7 17 -11 30 -10 30 1 0 -3 10 -9 22 -7 12 -8 23 -3 25
5 2 0 28 -11 58 -52 142 -56 149 -70 129 -6 -11 -8 -9 -6 6 4 26 51 49 57 26
2 -8 14 -23 26 -33z m-1320 -88 c3 -5 -1 -10 -9 -10 -8 0 -19 -6 -23 -12 -4
-7 -16 -19 -25 -26 -14 -11 -16 -11 -11 7 3 12 9 18 14 15 5 -2 14 4 21 16 14
22 24 25 33 10z m-98 -86 c2 -5 -5 -10 -16 -10 -11 0 -17 5 -14 14 6 14 25 12
30 -4z m3468 -14 c-11 -5 -27 -9 -35 -9 -13 -1 -13 0 0 9 8 5 24 9 35 9 l20 0
-20 -9z m-3515 -27 c0 -5 -5 -15 -10 -23 -8 -12 -10 -11 -10 8 0 12 5 22 10
22 6 0 10 -3 10 -7z m1900 -33 c0 -13 -1 -13 -10 0 -5 8 -10 22 -10 30 0 13 1
13 10 0 5 -8 10 -22 10 -30z m439 -31 c33 -53 45 -102 15 -64 -25 32 -65 115
-56 115 5 0 23 -23 41 -51z m798 35 c-3 -3 -12 -4 -19 -1 -8 3 -5 6 6 6 11 1
17 -2 13 -5z m-3167 -45 c-13 -24 -16 -24 -22 -1 -4 12 1 18 13 19 16 2 17 -2
9 -18z m1950 -12 c0 -5 -4 -5 -10 -2 -5 3 -10 14 -10 23 0 15 2 15 10 2 5 -8
10 -19 10 -23z m-2390 -7 c0 -5 -4 -10 -10 -10 -5 0 -10 5 -10 10 0 6 5 10 10
10 6 0 10 -4 10 -10z m348 -72 c8 -8 6 -17 -8 -35 -10 -13 -17 -30 -14 -38 7
-18 -11 -28 -24 -12 -17 20 -3 97 17 97 9 0 22 -5 29 -12z m2898 -43 c16 -12
16 -14 3 -15 -9 0 -22 7 -29 15 -16 19 0 19 26 0z m101 -50 c9 -24 0 -25 -26
-4 -23 19 -23 19 -2 19 12 0 24 -7 28 -15z m-3093 -11 c3 -8 2 -12 -4 -9 -6 3
-10 10 -10 16 0 14 7 11 14 -7z m-53 -35 c11 -6 1 -39 -11 -39 -12 0 -23 57
-13 72 5 9 9 7 11 -7 3 -11 8 -23 13 -26z m476 25 c7 13 10 2 10 -46 1 -73 -4
-86 -23 -61 -12 17 -13 17 -14 1 0 -19 -20 -26 -20 -8 0 6 -11 10 -24 10 -27
0 -36 17 -34 68 1 25 6 32 22 34 41 2 45 3 52 11 5 4 11 0 15 -10 5 -16 6 -16
16 1z m80 -46 c-3 -7 -5 -2 -5 12 0 14 2 19 5 13 2 -7 2 -19 0 -25z m-20 0
c-3 -8 -6 -5 -6 6 -1 11 2 17 5 13 3 -3 4 -12 1 -19z m3603 -3 c-7 -8 -19 -15
-27 -15 -13 0 -13 3 -3 15 7 8 19 15 27 15 13 0 13 -3 3 -15z m-60 -4 c0 -5
-7 -11 -15 -15 -9 -3 -15 0 -15 9 0 8 7 15 15 15 8 0 15 -4 15 -9z m-780 -47
c0 4 9 2 20 -4 11 -6 20 -17 20 -24 0 -12 7 -12 38 -3 20 6 41 16 45 22 6 7
10 6 14 -2 3 -8 14 -11 30 -7 24 6 71 -11 85 -31 4 -5 14 -3 25 7 16 15 22 15
62 1 40 -13 45 -13 53 1 11 20 37 21 44 1 7 -16 53 -11 65 8 4 5 9 5 14 -2 5
-9 10 -9 20 -1 23 19 70 8 73 -17 2 -16 -2 -23 -13 -23 -9 0 -14 -4 -11 -9 4
-5 -12 -12 -34 -16 -22 -4 -40 -11 -40 -17 0 -6 -13 -7 -32 -2 -29 6 -31 5
-20 -9 20 -23 -2 -29 -26 -7 -26 24 -32 25 -32 4 0 -13 -8 -15 -35 -12 -20 2
-35 0 -35 -7 0 -5 -5 -3 -10 5 -8 13 -10 13 -10 -2 0 -13 -7 -16 -30 -13 -17
2 -35 7 -41 11 -8 4 -9 -1 -5 -17 6 -22 6 -23 -7 -6 -8 9 -22 17 -31 17 -9 0
-17 -8 -17 -17 -1 -17 -2 -17 -6 0 -4 14 -8 16 -19 6 -11 -9 -14 -9 -14 0 0 7
-5 9 -12 4 -7 -4 -19 -8 -26 -9 -17 -3 -53 27 -46 38 9 13 -7 69 -17 62 -14
-9 -10 -60 6 -74 8 -7 12 -16 9 -22 -3 -5 -13 -4 -22 4 -12 10 -14 10 -8 1 10
-18 -9 -16 -23 1 -17 20 -71 -1 -72 -29 -2 -18 -2 -18 -6 2 -4 19 -8 21 -28
13 -19 -7 -27 -5 -40 13 -9 12 -14 17 -11 11 3 -6 -1 -11 -9 -11 -10 0 -11 6
-4 25 5 14 7 33 4 43 -5 14 -2 17 9 13 10 -4 16 -1 16 8 0 8 6 22 13 32 12 17
14 15 12 -18 0 -20 3 -36 7 -36 4 0 8 -4 8 -10 0 -5 -6 -10 -14 -10 -8 0 -16
-7 -20 -15 -5 -14 -2 -14 24 0 37 19 46 19 30 0 -7 -9 -10 -19 -6 -23 10 -9
36 27 36 48 0 9 3 20 8 24 4 4 7 15 8 24 1 10 2 30 3 46 1 24 3 27 16 16 8 -7
15 -9 15 -6z m800 6 c11 -7 7 -10 -17 -10 -17 0 -34 -6 -36 -12 -4 -10 -8 -10
-16 2 -5 8 -7 18 -5 22 7 11 56 10 74 -2z m-133 -44 c-7 -14 -13 -23 -15 -21
-7 6 9 45 18 45 4 0 3 -11 -3 -24z m48 4 c-3 -5 -14 -10 -23 -9 -14 0 -13 2 3
9 27 11 27 11 20 0z m-1633 -221 c12 -16 56 -50 98 -75 41 -25 98 -59 125 -76
28 -17 84 -50 125 -73 41 -23 124 -70 184 -104 60 -33 111 -61 114 -61 2 0 49
-26 105 -57 143 -79 273 -151 332 -182 28 -15 59 -32 70 -39 42 -24 475 -230
497 -237 27 -7 85 -30 144 -56 22 -9 67 -26 100 -36 53 -16 56 -18 27 -21 -57
-6 -280 84 -526 214 -27 14 -46 20 -42 14 8 -12 -7 -13 -20 -1 -19 18 -123 71
-140 71 -9 0 -28 9 -42 20 -14 11 -38 20 -53 20 -15 0 -33 7 -40 15 -7 8 -18
15 -24 15 -6 0 -28 16 -48 35 -21 18 -38 32 -38 29 0 -3 -38 15 -84 40 -46 25
-86 43 -90 39 -3 -4 -19 5 -34 19 -49 45 -86 65 -135 72 -26 4 -73 22 -105 39
-31 18 -77 41 -101 52 -24 11 -56 31 -70 45 -15 14 -37 32 -50 40 -13 8 -37
28 -55 43 -28 25 -125 77 -144 77 -15 0 -142 136 -142 153 0 15 3 16 20 7 11
-6 30 -24 42 -41z m115 -61 c-3 -8 -6 -5 -6 6 -1 11 2 17 5 13 3 -3 4 -12 1
-19z m66 9 c6 4 8 1 5 -8 -3 -8 1 -20 8 -27 12 -11 15 -11 18 0 13 39 15 39
14 -4 -1 -31 -5 -44 -12 -40 -6 4 -28 18 -48 31 -21 12 -38 24 -38 26 0 2 8
11 17 21 11 11 18 13 21 5 2 -6 9 -8 15 -4z m147 -45 c0 -32 1 -34 13 -18 12
17 14 15 14 -15 0 -19 -2 -28 -4 -21 -7 20 -23 14 -24 -10 -2 -22 -2 -22 -6 1
-5 27 -36 65 -33 40 4 -26 0 -49 -9 -49 -4 0 -7 12 -5 28 2 15 1 19 -2 10 -3
-10 -10 -18 -15 -18 -16 0 -20 25 -9 56 11 26 13 27 24 12 12 -16 14 -16 25 8
15 33 31 22 31 -24z m67 -44 c-3 -7 -5 -2 -5 12 0 14 2 19 5 13 2 -7 2 -19 0
-25z m377 -13 c-7 -16 -35 -35 -54 -35 -6 0 -8 5 -5 10 3 6 -1 10 -9 10 -8 0
-18 5 -22 11 -5 9 3 10 29 5 21 -4 38 -2 42 4 10 16 25 12 19 -5z m118 -3
c-17 -13 -20 -20 -11 -29 9 -9 2 -12 -30 -11 -28 0 -64 -11 -114 -35 -39 -20
-81 -36 -92 -35 -11 1 -30 -2 -42 -6 -13 -4 -23 -4 -23 1 0 5 -9 9 -20 9 -11
0 -20 -4 -20 -8 0 -4 -4 -8 -10 -8 -22 0 -8 22 20 33 17 6 30 15 30 20 0 4 5
5 10 2 6 -3 10 -1 10 5 0 6 5 8 10 5 6 -4 8 -11 5 -16 -11 -16 23 -10 81 16
31 14 67 25 79 25 12 0 47 11 76 24 65 30 71 31 41 8z m113 -2 c3 -5 -1 -10
-10 -10 -9 0 -13 5 -10 10 3 6 8 10 10 10 2 0 7 -4 10 -10z m306 -1 c-13 -5
-76 -11 -140 -13 l-116 -4 90 9 c50 5 97 11 105 13 8 2 31 4 50 4 32 1 33 0
11 -9z m372 -12 c50 -1 63 -3 42 -8 -27 -6 -25 -7 15 -8 25 -1 56 -4 69 -8 55
-14 -17 -19 -218 -15 -124 2 -226 0 -256 -7 -56 -12 -276 -28 -317 -23 -16 2
-28 10 -28 17 0 22 56 28 335 41 83 4 159 11 170 15 11 5 41 6 68 3 26 -3 80
-6 120 -7z m-758 -27 c3 -5 1 -10 -4 -10 -6 0 -11 5 -11 10 0 6 2 10 4 10 3 0
8 -4 11 -10z m81 -68 c-2 -4 7 -13 22 -20 52 -24 68 -41 56 -60 -19 -29 -67
-51 -129 -57 -34 -4 -55 -3 -48 2 12 9 63 80 63 89 0 7 32 54 37 54 2 0 2 -4
-1 -8z m-3196 -53 c0 -11 -42 -65 -104 -132 -41 -45 -39 -40 37 72 45 66 67
86 67 60z m480 -257 c0 -4 -18 -26 -40 -47 -48 -46 -52 -38 -9 16 29 37 49 49
49 31z m-722 -62 c-7 -10 -14 -17 -17 -15 -4 4 18 35 25 35 2 0 -1 -9 -8 -20z
m-82 -122 c-9 -13 -30 -47 -47 -75 -17 -29 -36 -56 -42 -60 -6 -3 0 11 13 33
39 65 81 124 87 124 3 0 -2 -10 -11 -22z m-374 -723 c-34 -70 -51 -89 -26 -27
29 70 47 103 52 98 2 -3 -9 -35 -26 -71z"/>
<path d="M1020 4445 c0 -8 5 -15 10 -15 6 0 10 7 10 15 0 8 -4 15 -10 15 -5 0
-10 -7 -10 -15z"/>
<path d="M2791 2857 c-1 -10 -5 -15 -11 -12 -12 7 -12 -40 -1 -69 6 -15 10
-16 16 -7 4 8 2 17 -6 23 -8 5 -10 11 -4 14 29 13 40 24 29 32 -6 4 -14 14
-17 22 -4 12 -6 11 -6 -3z"/>
<path d="M2818 2863 c7 -3 16 -2 19 1 4 3 -2 6 -13 5 -11 0 -14 -3 -6 -6z"/>
<path d="M3130 2749 c0 -5 5 -7 10 -4 6 3 10 8 10 11 0 2 -4 4 -10 4 -5 0 -10
-5 -10 -11z"/>
<path d="M4283 2736 c0 -8 7 -18 14 -21 10 -3 13 1 11 12 -4 21 -25 28 -25 9z"/>
<path d="M4325 2191 c-3 -5 -2 -12 3 -15 5 -3 9 1 9 9 0 17 -3 19 -12 6z"/>
<path d="M75 5420 c-3 -5 1 -10 10 -10 9 0 13 5 10 10 -3 6 -8 10 -10 10 -2 0
-7 -4 -10 -10z"/>
<path d="M165 5410 c3 -5 10 -10 16 -10 5 0 9 5 9 10 0 6 -7 10 -16 10 -8 0
-12 -4 -9 -10z"/>
<path d="M18 5383 c6 -2 18 -2 25 0 6 3 1 5 -13 5 -14 0 -19 -2 -12 -5z"/>
<path d="M138 5343 c6 -2 18 -2 25 0 6 3 1 5 -13 5 -14 0 -19 -2 -12 -5z"/>
<path d="M0 5308 c0 -9 5 -20 11 -23 17 -11 20 0 4 21 -13 17 -14 17 -15 2z"/>
<path d="M156 5311 c-9 -14 8 -31 31 -31 6 0 18 -3 27 -6 10 -4 16 -1 16 9 0
8 -7 17 -15 21 -8 3 -15 1 -15 -4 0 -18 -28 -11 -32 8 -3 13 -5 14 -12 3z"/>
<path d="M247 5203 c-15 -14 -6 -24 16 -18 35 11 44 25 16 25 -14 0 -29 -3
-32 -7z"/>
<path d="M68 5133 c7 -3 16 -2 19 1 4 3 -2 6 -13 5 -11 0 -14 -3 -6 -6z"/>
<path d="M315 5060 c3 -5 8 -10 11 -10 2 0 4 5 4 10 0 6 -5 10 -11 10 -5 0 -7
-4 -4 -10z"/>
<path d="M417 5063 c-3 -5 -8 -23 -12 -41 -4 -21 -12 -32 -19 -29 -7 3 -19 1
-27 -4 -10 -6 -8 -9 11 -9 31 0 45 10 52 35 3 11 9 28 13 38 7 16 -9 25 -18
10z"/>
<path d="M456 5044 c-9 -22 -8 -26 6 -22 13 5 20 38 8 38 -4 0 -11 -7 -14 -16z"/>
<path d="M290 5041 c0 -5 8 -12 17 -15 11 -5 14 -9 6 -14 -8 -5 -7 -11 3 -20
12 -11 14 -10 14 3 0 9 6 18 14 21 8 3 12 12 9 20 -4 11 -9 12 -16 5 -7 -7
-16 -7 -29 0 -10 6 -18 6 -18 0z"/>
<path d="M383 5030 c-11 -16 -10 -18 2 -14 8 4 15 12 15 20 0 19 -3 18 -17 -6z"/>
<path d="M525 5031 c11 -18 13 -61 4 -67 -12 -7 -11 -24 1 -24 6 0 10 6 10 14
0 8 5 16 12 18 15 5 -3 60 -22 66 -8 3 -10 0 -5 -7z"/>
<path d="M445 5000 c-4 -6 -3 -14 0 -20 5 -8 -94 -17 -128 -11 -5 1 -6 -2 -3
-7 3 -5 26 -8 51 -7 47 2 57 -7 28 -24 -10 -6 -12 -11 -5 -11 22 0 13 -18 -15
-28 l-28 -10 27 -1 c20 -1 26 -5 22 -16 -4 -9 0 -15 10 -15 9 0 16 -6 16 -12
0 -9 3 -10 8 -2 8 12 42 15 42 3 0 -9 51 5 77 21 15 9 9 10 -30 6 -38 -5 -49
-2 -54 11 -6 14 -8 14 -21 -3 -9 -12 -13 -14 -10 -4 3 8 -2 20 -11 27 -14 11
-14 12 5 13 11 0 24 -3 27 -7 13 -12 58 -12 54 0 -2 7 -16 13 -30 15 -15 2
-27 8 -27 13 0 6 10 9 22 7 15 -2 26 5 34 21 13 26 10 41 -8 41 -5 0 -8 -7 -4
-15 3 -9 0 -15 -9 -15 -8 0 -12 6 -9 14 6 16 -22 30 -31 16z"/>
<path d="M248 4973 c6 -2 18 -2 25 0 6 3 1 5 -13 5 -14 0 -19 -2 -12 -5z"/>
<path d="M543 4923 c-15 -5 -18 -33 -4 -33 8 0 25 30 19 35 -2 1 -9 0 -15 -2z"/>
<path d="M340 4909 c0 -5 9 -9 20 -9 11 0 20 2 20 4 0 2 -9 6 -20 9 -11 3 -20
1 -20 -4z"/>
<path d="M350 4860 c0 -5 5 -10 10 -10 6 0 10 5 10 10 0 6 -4 10 -10 10 -5 0
-10 -4 -10 -10z"/>
<path d="M600 4780 c20 -13 33 -13 25 0 -3 6 -14 10 -23 10 -15 0 -15 -2 -2
-10z"/>
<path d="M505 4729 c-4 -6 -5 -12 -2 -15 2 -3 7 2 10 11 7 17 1 20 -8 4z"/>
<path d="M713 4495 c-7 -8 -9 -16 -4 -19 5 -3 12 1 15 10 8 22 4 25 -11 9z"/>
<path d="M705 4450 c-3 -5 -1 -18 4 -27 6 -10 11 -13 11 -6 0 6 3 18 6 27 7
17 -11 22 -21 6z"/>
<path d="M740 4406 c0 -9 5 -16 10 -16 6 0 10 4 10 9 0 6 -4 13 -10 16 -5 3
-10 -1 -10 -9z"/>
<path d="M626 4400 c-16 -5 -17 -8 -4 -12 16 -7 45 7 32 14 -5 3 -18 2 -28 -2z"/>
<path d="M305 4370 c3 -5 8 -10 11 -10 2 0 4 5 4 10 0 6 -5 10 -11 10 -5 0 -7
-4 -4 -10z"/>
<path d="M705 4360 c-3 -5 1 -10 9 -10 9 0 16 5 16 10 0 6 -4 10 -9 10 -6 0
-13 -4 -16 -10z"/>
<path d="M770 4359 c0 -5 5 -7 10 -4 6 3 10 8 10 11 0 2 -4 4 -10 4 -5 0 -10
-5 -10 -11z"/>
<path d="M250 4340 c0 -5 5 -10 10 -10 6 0 10 5 10 10 0 6 -4 10 -10 10 -5 0
-10 -4 -10 -10z"/>
<path d="M601 4314 c0 -11 3 -14 6 -6 3 7 2 16 -1 19 -3 4 -6 -2 -5 -13z"/>
<path d="M713 4311 c-16 -26 -3 -36 15 -10 11 16 17 18 28 8 12 -10 13 -9 8 5
-8 22 -36 20 -51 -3z"/>
<path d="M220 4290 c0 -5 9 -14 20 -20 23 -12 26 -5 6 16 -17 16 -26 18 -26 4z"/>
<path d="M660 4280 c0 -5 5 -10 10 -10 6 0 10 5 10 10 0 6 -4 10 -10 10 -5 0
-10 -4 -10 -10z"/>
<path d="M2307 4243 c-11 -13 -17 -26 -14 -29 2 -3 12 7 21 22 23 33 17 39 -7
7z"/>
<path d="M400 4218 c0 -36 4 -35 14 5 4 16 2 27 -4 27 -5 0 -10 -14 -10 -32z"/>
<path d="M1600 4220 c0 -5 5 -10 10 -10 6 0 10 5 10 10 0 6 -4 10 -10 10 -5 0
-10 -4 -10 -10z"/>
<path d="M350 4205 c0 -15 18 -40 24 -34 3 3 -1 14 -9 25 -8 10 -14 15 -15 9z"/>
<path d="M1450 4190 c-12 -8 -10 -10 8 -10 13 0 20 4 17 10 -7 12 -6 12 -25 0z"/>
<path d="M2351 4195 c0 -5 6 -21 14 -35 8 -14 14 -20 14 -15 0 6 -6 21 -14 35
-8 14 -14 21 -14 15z"/>
<path d="M420 4184 c0 -10 31 -36 37 -31 10 10 -6 37 -22 37 -8 0 -15 -3 -15
-6z"/>
<path d="M640 4180 c0 -5 5 -10 11 -10 5 0 7 5 4 10 -3 6 -8 10 -11 10 -2 0
-4 -4 -4 -10z"/>
<path d="M797 4179 c7 -7 15 -10 18 -7 3 3 -2 9 -12 12 -14 6 -15 5 -6 -5z"/>
<path d="M1700 4181 c-24 -7 -24 -7 8 -20 17 -7 29 -17 27 -21 -3 -5 -1 -11 4
-14 5 -3 11 5 13 18 4 19 1 23 -11 19 -12 -3 -11 0 3 11 20 16 20 16 0 15 -10
-1 -30 -4 -44 -8z"/>
<path d="M2205 4180 c-3 -5 -2 -10 4 -10 5 0 13 5 16 10 3 6 2 10 -4 10 -5 0
-13 -4 -16 -10z"/>
<path d="M695 4170 c-3 -5 -1 -17 4 -27 5 -10 12 -26 15 -36 3 -10 12 -17 19
-15 21 7 19 36 -2 55 -20 16 -20 18 -4 25 15 6 15 7 -4 7 -12 1 -24 -3 -28 -9z"/>
<path d="M480 4160 c0 -5 7 -7 15 -4 8 4 15 8 15 10 0 2 -7 4 -15 4 -8 0 -15
-4 -15 -10z"/>
<path d="M1766 4153 c-6 -14 -5 -15 5 -6 7 7 10 15 7 18 -3 3 -9 -2 -12 -12z"/>
<path d="M270 4131 c0 -6 5 -13 10 -16 6 -3 10 1 10 9 0 9 -4 16 -10 16 -5 0
-10 -4 -10 -9z"/>
<path d="M450 4124 c0 -12 6 -15 23 -10 12 3 27 6 32 6 6 0 3 5 -5 10 -23 15
-50 12 -50 -6z"/>
<path d="M530 4124 c0 -8 5 -12 10 -9 6 4 8 11 5 16 -9 14 -15 11 -15 -7z"/>
<path d="M1683 4124 c0 -16 6 -17 25 -5 11 6 9 9 -5 13 -12 3 -20 0 -20 -8z"/>
<path d="M1923 4133 c15 -2 37 -2 50 0 12 2 0 4 -28 4 -27 0 -38 -2 -22 -4z"/>
<path d="M2293 4134 c8 -8 -27 -41 -50 -47 -16 -4 -15 -5 3 -6 33 -2 84 28 77
44 -3 8 -12 15 -21 15 -8 0 -13 -3 -9 -6z"/>
<path d="M1211 4108 c-17 -27 -9 -33 13 -9 10 10 13 21 9 24 -5 3 -15 -3 -22
-15z"/>
<path d="M2380 4121 c0 -6 4 -13 10 -16 6 -3 7 1 4 9 -7 18 -14 21 -14 7z"/>
<path d="M660 4110 c0 -5 5 -10 11 -10 5 0 7 5 4 10 -3 6 -8 10 -11 10 -2 0
-4 -4 -4 -10z"/>
<path d="M88 4103 c6 -2 18 -2 25 0 6 3 1 5 -13 5 -14 0 -19 -2 -12 -5z"/>
<path d="M206 4087 c3 -10 9 -15 12 -12 3 3 0 11 -7 18 -10 9 -11 8 -5 -6z"/>
<path d="M490 4085 c0 -8 5 -15 10 -15 6 0 10 7 10 15 0 8 -4 15 -10 15 -5 0
-10 -7 -10 -15z"/>
<path d="M575 4090 c3 -5 8 -10 11 -10 2 0 4 5 4 10 0 6 -5 10 -11 10 -5 0 -7
-4 -4 -10z"/>
<path d="M1730 4091 c-8 -6 -18 -7 -22 -5 -4 3 -8 0 -8 -5 0 -15 13 -14 36 4
21 16 17 20 -6 6z"/>
<path d="M1928 4093 c12 -2 30 -2 40 0 9 3 -1 5 -23 4 -22 0 -30 -2 -17 -4z"/>
<path d="M240 4086 c0 -2 7 -6 15 -10 8 -3 15 -1 15 4 0 6 -7 10 -15 10 -8 0
-15 -2 -15 -4z"/>
<path d="M376 4075 c3 -6 20 -11 39 -12 54 -2 69 -18 40 -46 -12 -13 -12 -16
6 -20 12 -3 18 -10 14 -16 -3 -6 -1 -11 4 -11 6 0 11 6 11 13 0 6 3 21 6 32 9
34 -40 75 -86 73 -24 -1 -37 -5 -34 -13z"/>
<path d="M1260 4086 c0 -2 7 -6 15 -10 8 -3 15 -1 15 4 0 6 -7 10 -15 10 -8 0
-15 -2 -15 -4z"/>
<path d="M1815 4080 c-13 -6 -2 -7 30 -3 28 3 52 7 54 9 9 8 -65 2 -84 -6z"/>
<path d="M152 4060 c0 -14 2 -19 5 -12 2 6 2 18 0 25 -3 6 -5 1 -5 -13z"/>
<path d="M1220 4070 c0 -5 7 -10 15 -10 8 0 15 5 15 10 0 6 -7 10 -15 10 -8 0
-15 -4 -15 -10z"/>
<path d="M1640 4060 c-13 -9 -13 -10 0 -10 8 0 22 5 30 10 13 9 13 10 0 10 -8
0 -22 -5 -30 -10z"/>
<path d="M1937 4062 c-15 -2 -25 -7 -22 -12 3 -4 -17 -11 -45 -15 -74 -10 -72
-26 2 -18 35 3 65 9 68 12 4 5 28 7 144 10 11 1 16 4 12 8 -9 9 -120 19 -159
15z"/>
<path d="M2163 4063 c9 -2 23 -2 30 0 6 3 -1 5 -18 5 -16 0 -22 -2 -12 -5z"/>
<path d="M256 4043 c-6 -15 -8 -15 -16 -3 -8 13 -10 13 -10 0 0 -31 64 -66 97
-53 12 5 12 7 1 14 -10 7 -8 9 7 9 19 1 19 1 2 11 -9 6 -14 15 -11 21 4 6 1 9
-7 6 -8 -3 -13 -12 -11 -22 2 -11 -4 -16 -19 -16 -18 0 -19 3 -9 15 12 14 6
35 -10 35 -4 0 -11 -8 -14 -17z"/>
<path d="M2240 4050 c87 -29 152 -48 144 -41 -11 10 -140 51 -157 50 -6 0 -1
-5 13 -9z"/>
<path d="M400 4038 c0 -9 -6 -23 -14 -31 -13 -12 -11 -17 14 -36 34 -25 40
-26 40 -7 0 8 -9 21 -21 29 -13 10 -16 16 -8 19 9 3 9 9 1 24 -10 16 -11 16
-12 2z"/>
<path d="M1579 4029 c-19 -16 -20 -18 -4 -10 34 17 51 31 39 31 -7 0 -22 -9
-35 -21z"/>
<path d="M688 4033 c6 -2 18 -2 25 0 6 3 1 5 -13 5 -14 0 -19 -2 -12 -5z"/>
<path d="M1670 4010 c-8 -5 -10 -10 -5 -10 6 0 17 5 25 10 8 5 11 10 5 10 -5
0 -17 -5 -25 -10z"/>
<path d="M2090 4010 c0 -5 12 -10 28 -9 24 0 25 1 7 9 -27 12 -35 12 -35 0z"/>
<path d="M140 4000 c0 -5 4 -10 9 -10 6 0 13 5 16 10 3 6 -1 10 -9 10 -9 0
-16 -4 -16 -10z"/>
<path d="M699 3964 c-9 -19 -12 -34 -7 -34 5 0 7 -8 4 -18 -4 -11 2 -22 14
-30 17 -10 20 -10 20 3 0 8 -4 15 -9 15 -12 0 -1 43 13 53 8 5 8 9 0 15 -6 4
-13 12 -15 18 -2 6 -11 -4 -20 -22z"/>
<path d="M1115 3979 c-9 -14 -2 -20 14 -10 8 6 9 11 3 15 -6 3 -14 1 -17 -5z"/>
<path d="M133 3972 c-29 -2 -53 -7 -53 -12 0 -8 109 -4 117 4 9 8 -14 11 -64
8z"/>
<path d="M595 3970 c3 -5 10 -10 16 -10 5 0 9 5 9 10 0 6 -7 10 -16 10 -8 0
-12 -4 -9 -10z"/>
<path d="M1570 3970 c-18 -12 -2 -12 25 0 13 6 15 9 5 9 -8 0 -22 -4 -30 -9z"/>
<path d="M260 3960 c0 -5 6 -10 14 -10 8 0 18 5 21 10 3 6 -3 10 -14 10 -12 0
-21 -4 -21 -10z"/>
<path d="M330 3960 c0 -5 11 -10 24 -10 14 0 28 5 31 10 4 6 -7 10 -24 10 -17
0 -31 -4 -31 -10z"/>
<path d="M758 3933 c7 -3 16 -2 19 1 4 3 -2 6 -13 5 -11 0 -14 -3 -6 -6z"/>
<path d="M1798 3917 c-16 -6 -28 -15 -28 -19 0 -5 10 -3 23 3 12 7 36 16 52
20 26 6 27 7 5 7 -14 0 -37 -5 -52 -11z"/>
<path d="M2525 3907 c10 -15 20 -25 23 -22 3 3 -5 16 -17 28 l-23 22 17 -28z"/>
<path d="M760 3900 c0 -5 7 -10 15 -10 8 0 15 5 15 10 0 6 -7 10 -15 10 -8 0
-15 -4 -15 -10z"/>
<path d="M735 3860 c-3 -5 1 -10 10 -10 9 0 13 5 10 10 -3 6 -8 10 -10 10 -2
0 -7 -4 -10 -10z"/>
<path d="M1820 3849 c0 -5 5 -7 10 -4 6 3 10 8 10 11 0 2 -4 4 -10 4 -5 0 -10
-5 -10 -11z"/>
<path d="M1740 3830 c0 -5 7 -7 15 -4 8 4 15 8 15 10 0 2 -7 4 -15 4 -8 0 -15
-4 -15 -10z"/>
<path d="M1020 3755 c0 -8 7 -15 16 -15 11 0 13 -6 9 -19 -3 -11 0 -23 6 -27
8 -5 9 -3 5 5 -8 13 23 43 36 35 4 -3 5 2 2 11 -5 13 -9 13 -21 3 -12 -10 -18
-9 -28 5 -15 21 -25 22 -25 2z"/>
<path d="M1746 3745 c-3 -8 -1 -15 4 -15 6 0 10 7 10 15 0 8 -2 15 -4 15 -2 0
-6 -7 -10 -15z"/>
<path d="M1010 3721 c0 -6 4 -13 10 -16 6 -3 7 1 4 9 -7 18 -14 21 -14 7z"/>
<path d="M1076 3703 c-6 -14 -5 -15 5 -6 7 7 10 15 7 18 -3 3 -9 -2 -12 -12z"/>
<path d="M1366 3684 c-9 -24 -7 -63 4 -85 11 -20 -3 -28 -15 -9 -11 18 -23 10
-30 -19 -7 -33 3 -83 15 -76 5 3 12 1 15 -5 4 -6 16 -8 26 -5 11 4 27 1 35 -6
8 -6 17 -9 21 -5 10 10 11 178 2 204 -11 27 -33 19 -24 -9 7 -20 -2 -24 -24
-10 -7 5 -11 13 -7 19 3 6 2 13 -3 16 -5 3 -12 -1 -15 -10z"/>
<path d="M1298 3646 c-3 -15 -1 -29 3 -32 14 -8 22 23 11 42 -8 14 -10 13 -14
-10z"/>
<path d="M1187 3592 c-24 -80 -23 -112 3 -105 18 5 20 14 20 84 0 44 -1 79 -3
79 -1 0 -10 -26 -20 -58z"/>
<path d="M1462 3620 c0 -19 2 -27 5 -17 2 9 2 25 0 35 -3 9 -5 1 -5 -18z"/>
<path d="M876 3615 c-3 -8 -1 -15 4 -15 6 0 10 7 10 15 0 8 -2 15 -4 15 -2 0
-6 -7 -10 -15z"/>
<path d="M900 3590 c0 -5 7 -10 15 -10 27 0 16 -16 -20 -29 -31 -11 -34 -15
-29 -39 13 -53 44 -56 38 -4 -3 25 2 30 31 42 36 14 46 30 20 30 -8 0 -15 5
-15 10 0 6 -9 10 -20 10 -11 0 -20 -4 -20 -10z"/>
<path d="M997 3583 c3 -7 6 -13 8 -13 2 0 5 6 8 13 3 8 -1 14 -8 14 -7 0 -11
-6 -8 -14z"/>
<path d="M972 3554 c-7 -8 -8 -14 -3 -14 10 0 25 19 20 25 -2 1 -10 -3 -17
-11z"/>
<path d="M1532 3550 c0 -14 2 -19 5 -12 2 6 2 18 0 25 -3 6 -5 1 -5 -13z"/>
<path d="M1141 3524 c0 -11 3 -14 6 -6 3 7 2 16 -1 19 -3 4 -6 -2 -5 -13z"/>
<path d="M940 3523 c8 -3 18 -11 22 -17 5 -7 8 -4 8 7 0 11 -7 17 -22 16 -16
0 -18 -2 -8 -6z"/>
<path d="M3136 3503 c-6 -14 -5 -15 5 -6 7 7 10 15 7 18 -3 3 -9 -2 -12 -12z"/>
<path d="M927 3473 c-4 -3 -7 -16 -6 -27 0 -19 1 -19 10 3 10 24 8 36 -4 24z"/>
<path d="M1026 3448 c-3 -13 -5 -32 -5 -43 1 -11 5 -2 10 19 10 42 6 62 -5 24z"/>
<path d="M900 3435 c0 -5 5 -17 10 -25 5 -8 10 -10 10 -5 0 6 -5 17 -10 25 -5
8 -10 11 -10 5z"/>
<path d="M3130 3315 c0 -15 18 -40 24 -34 3 3 -1 14 -9 25 -8 10 -14 15 -15 9z"/>
<path d="M960 3290 c0 -11 -5 -20 -10 -20 -6 0 -10 -15 -9 -32 1 -18 -1 -51
-5 -73 l-6 -40 15 33 c16 34 33 152 21 152 -3 0 -6 -9 -6 -20z"/>
<path d="M3482 3264 c10 -10 20 -16 22 -13 3 3 -5 11 -17 18 -21 13 -21 12 -5
-5z"/>
</g>
</svg>
